# Blender v2.79 (sub 0) OBJ File: 'Tree.blend'
# www.blender.org
o Trunk_Cylinder.001
v 0.000000 0.000000 -0.200000
v 0.000000 1.500000 -0.125000
v 0.117557 0.000000 -0.161803
v 0.073473 1.500000 -0.101127
v 0.190211 0.000000 -0.061803
v 0.118882 1.500000 -0.038627
v 0.190211 0.000000 0.061803
v 0.118882 1.500000 0.038627
v 0.117557 0.000000 0.161803
v 0.073473 1.500000 0.101127
v -0.000000 0.000000 0.200000
v -0.000000 1.500000 0.125000
v -0.117557 0.000000 0.161803
v -0.073473 1.500000 0.101127
v -0.190211 0.000000 0.061803
v -0.118882 1.500000 0.038627
v -0.190211 0.000000 -0.061803
v -0.118882 1.500000 -0.038627
v -0.117557 0.000000 -0.161803
v -0.073473 1.500000 -0.101127
v 0.000000 1.000000 0.000000
v 0.723607 1.552781 0.525725
v -0.276388 1.552780 0.850649
v -0.894426 1.552784 0.000000
v -0.276388 1.552780 -0.850649
v 0.723607 1.552781 -0.525725
v 0.276388 2.447220 0.850649
v -0.723607 2.447219 0.525725
v -0.723607 2.447219 -0.525725
v 0.276388 2.447220 -0.850649
v 0.894426 2.447216 0.000000
v 0.000000 3.000000 0.000000
v -0.162456 1.149346 0.499995
v 0.425323 1.149346 0.309011
v 0.262869 1.474262 0.809012
v 0.850648 1.474264 0.000000
v 0.425323 1.149346 -0.309011
v -0.525730 1.149348 0.000000
v -0.688189 1.474264 0.499997
v -0.162456 1.149346 -0.499995
v -0.688189 1.474264 -0.499997
v 0.262869 1.474262 -0.809012
v 0.951058 2.000000 0.309013
v 0.951058 2.000000 -0.309013
v 0.000000 2.000000 1.000000
v 0.587786 2.000000 0.809017
v -0.951058 2.000000 0.309013
v -0.587786 2.000000 0.809017
v -0.587786 2.000000 -0.809017
v -0.951058 2.000000 -0.309013
v 0.587786 2.000000 -0.809017
v 0.000000 2.000000 -1.000000
v 0.688189 2.525736 0.499997
v -0.262869 2.525738 0.809012
v -0.850648 2.525736 0.000000
v -0.262869 2.525738 -0.809012
v 0.688189 2.525736 -0.499997
v 0.162456 2.850654 0.499995
v 0.525730 2.850652 0.000000
v -0.425323 2.850654 0.309011
v -0.425323 2.850654 -0.309011
v 0.162456 2.850654 -0.499995
v 0.000000 0.000000 -0.200000
v 0.000000 0.000000 -0.200000
v 0.117557 0.000000 -0.161803
v 0.117557 0.000000 -0.161803
v 0.073473 1.500000 -0.101127
v 0.073473 1.500000 -0.101127
v 0.000000 1.500000 -0.125000
v 0.000000 1.500000 -0.125000
v 0.190211 0.000000 -0.061803
v 0.190211 0.000000 -0.061803
v 0.118882 1.500000 -0.038627
v 0.118882 1.500000 -0.038627
v 0.190211 0.000000 0.061803
v 0.190211 0.000000 0.061803
v 0.118882 1.500000 0.038627
v 0.118882 1.500000 0.038627
v 0.117557 0.000000 0.161803
v 0.117557 0.000000 0.161803
v 0.073473 1.500000 0.101127
v 0.073473 1.500000 0.101127
v -0.000000 0.000000 0.200000
v -0.000000 0.000000 0.200000
v -0.000000 1.500000 0.125000
v -0.000000 1.500000 0.125000
v -0.117557 0.000000 0.161803
v -0.117557 0.000000 0.161803
v -0.073473 1.500000 0.101127
v -0.073473 1.500000 0.101127
v -0.190211 0.000000 0.061803
v -0.190211 0.000000 0.061803
v -0.118882 1.500000 0.038627
v -0.118882 1.500000 0.038627
v -0.190211 0.000000 -0.061803
v -0.190211 0.000000 -0.061803
v -0.118882 1.500000 -0.038627
v -0.118882 1.500000 -0.038627
v -0.117557 0.000000 -0.161803
v -0.117557 0.000000 -0.161803
v -0.073473 1.500000 -0.101127
v -0.073473 1.500000 -0.101127
v -0.162456 1.149346 0.499995
v -0.162456 1.149346 0.499995
v -0.162456 1.149346 0.499995
v -0.162456 1.149346 0.499995
v -0.162456 1.149346 0.499995
v 0.000000 1.000000 0.000000
v 0.000000 1.000000 0.000000
v 0.000000 1.000000 0.000000
v 0.000000 1.000000 0.000000
v 0.425323 1.149346 0.309011
v 0.425323 1.149346 0.309011
v 0.425323 1.149346 0.309011
v 0.425323 1.149346 0.309011
v 0.425323 1.149346 0.309011
v 0.723607 1.552781 0.525725
v 0.723607 1.552781 0.525725
v 0.723607 1.552781 0.525725
v 0.723607 1.552781 0.525725
v 0.262869 1.474262 0.809012
v 0.262869 1.474262 0.809012
v 0.262869 1.474262 0.809012
v 0.262869 1.474262 0.809012
v 0.262869 1.474262 0.809012
v -0.276388 1.552780 0.850649
v -0.276388 1.552780 0.850649
v -0.276388 1.552780 0.850649
v -0.276388 1.552780 0.850649
v 0.850648 1.474264 0.000000
v 0.850648 1.474264 0.000000
v 0.850648 1.474264 0.000000
v 0.850648 1.474264 0.000000
v 0.850648 1.474264 0.000000
v 0.425323 1.149346 -0.309011
v 0.425323 1.149346 -0.309011
v 0.425323 1.149346 -0.309011
v 0.425323 1.149346 -0.309011
v 0.425323 1.149346 -0.309011
v 0.723607 1.552781 -0.525725
v 0.723607 1.552781 -0.525725
v 0.723607 1.552781 -0.525725
v 0.723607 1.552781 -0.525725
v -0.525730 1.149348 0.000000
v -0.525730 1.149348 0.000000
v -0.525730 1.149348 0.000000
v -0.525730 1.149348 0.000000
v -0.525730 1.149348 0.000000
v -0.688189 1.474264 0.499997
v -0.688189 1.474264 0.499997
v -0.688189 1.474264 0.499997
v -0.688189 1.474264 0.499997
v -0.688189 1.474264 0.499997
v -0.894426 1.552784 0.000000
v -0.894426 1.552784 0.000000
v -0.894426 1.552784 0.000000
v -0.894426 1.552784 0.000000
v -0.162456 1.149346 -0.499995
v -0.162456 1.149346 -0.499995
v -0.162456 1.149346 -0.499995
v -0.162456 1.149346 -0.499995
v -0.162456 1.149346 -0.499995
v -0.688189 1.474264 -0.499997
v -0.688189 1.474264 -0.499997
v -0.688189 1.474264 -0.499997
v -0.688189 1.474264 -0.499997
v -0.688189 1.474264 -0.499997
v -0.276388 1.552780 -0.850649
v -0.276388 1.552780 -0.850649
v -0.276388 1.552780 -0.850649
v -0.276388 1.552780 -0.850649
v 0.262869 1.474262 -0.809012
v 0.262869 1.474262 -0.809012
v 0.262869 1.474262 -0.809012
v 0.262869 1.474262 -0.809012
v 0.262869 1.474262 -0.809012
v 0.951058 2.000000 0.309013
v 0.951058 2.000000 0.309013
v 0.951058 2.000000 0.309013
v 0.951058 2.000000 0.309013
v 0.951058 2.000000 0.309013
v 0.951058 2.000000 -0.309013
v 0.951058 2.000000 -0.309013
v 0.951058 2.000000 -0.309013
v 0.951058 2.000000 -0.309013
v 0.951058 2.000000 -0.309013
v 0.894426 2.447216 0.000000
v 0.894426 2.447216 0.000000
v 0.894426 2.447216 0.000000
v 0.894426 2.447216 0.000000
v 0.000000 2.000000 1.000000
v 0.000000 2.000000 1.000000
v 0.000000 2.000000 1.000000
v 0.000000 2.000000 1.000000
v 0.000000 2.000000 1.000000
v 0.587786 2.000000 0.809017
v 0.587786 2.000000 0.809017
v 0.587786 2.000000 0.809017
v 0.587786 2.000000 0.809017
v 0.587786 2.000000 0.809017
v 0.276388 2.447220 0.850649
v 0.276388 2.447220 0.850649
v 0.276388 2.447220 0.850649
v 0.276388 2.447220 0.850649
v -0.951058 2.000000 0.309013
v -0.951058 2.000000 0.309013
v -0.951058 2.000000 0.309013
v -0.951058 2.000000 0.309013
v -0.951058 2.000000 0.309013
v -0.587786 2.000000 0.809017
v -0.587786 2.000000 0.809017
v -0.587786 2.000000 0.809017
v -0.587786 2.000000 0.809017
v -0.587786 2.000000 0.809017
v -0.723607 2.447219 0.525725
v -0.723607 2.447219 0.525725
v -0.723607 2.447219 0.525725
v -0.723607 2.447219 0.525725
v -0.587786 2.000000 -0.809017
v -0.587786 2.000000 -0.809017
v -0.587786 2.000000 -0.809017
v -0.587786 2.000000 -0.809017
v -0.587786 2.000000 -0.809017
v -0.951058 2.000000 -0.309013
v -0.951058 2.000000 -0.309013
v -0.951058 2.000000 -0.309013
v -0.951058 2.000000 -0.309013
v -0.951058 2.000000 -0.309013
v -0.723607 2.447219 -0.525725
v -0.723607 2.447219 -0.525725
v -0.723607 2.447219 -0.525725
v -0.723607 2.447219 -0.525725
v 0.587786 2.000000 -0.809017
v 0.587786 2.000000 -0.809017
v 0.587786 2.000000 -0.809017
v 0.587786 2.000000 -0.809017
v 0.587786 2.000000 -0.809017
v 0.000000 2.000000 -1.000000
v 0.000000 2.000000 -1.000000
v 0.000000 2.000000 -1.000000
v 0.000000 2.000000 -1.000000
v 0.000000 2.000000 -1.000000
v 0.276388 2.447220 -0.850649
v 0.276388 2.447220 -0.850649
v 0.276388 2.447220 -0.850649
v 0.276388 2.447220 -0.850649
v 0.688189 2.525736 0.499997
v 0.688189 2.525736 0.499997
v 0.688189 2.525736 0.499997
v 0.688189 2.525736 0.499997
v 0.688189 2.525736 0.499997
v -0.262869 2.525738 0.809012
v -0.262869 2.525738 0.809012
v -0.262869 2.525738 0.809012
v -0.262869 2.525738 0.809012
v -0.262869 2.525738 0.809012
v -0.850648 2.525736 0.000000
v -0.850648 2.525736 0.000000
v -0.850648 2.525736 0.000000
v -0.850648 2.525736 0.000000
v -0.850648 2.525736 0.000000
v -0.262869 2.525738 -0.809012
v -0.262869 2.525738 -0.809012
v -0.262869 2.525738 -0.809012
v -0.262869 2.525738 -0.809012
v -0.262869 2.525738 -0.809012
v 0.688189 2.525736 -0.499997
v 0.688189 2.525736 -0.499997
v 0.688189 2.525736 -0.499997
v 0.688189 2.525736 -0.499997
v 0.688189 2.525736 -0.499997
v 0.162456 2.850654 0.499995
v 0.162456 2.850654 0.499995
v 0.162456 2.850654 0.499995
v 0.162456 2.850654 0.499995
v 0.162456 2.850654 0.499995
v 0.525730 2.850652 0.000000
v 0.525730 2.850652 0.000000
v 0.525730 2.850652 0.000000
v 0.525730 2.850652 0.000000
v 0.525730 2.850652 0.000000
v 0.000000 3.000000 0.000000
v 0.000000 3.000000 0.000000
v 0.000000 3.000000 0.000000
v 0.000000 3.000000 0.000000
v -0.425323 2.850654 0.309011
v -0.425323 2.850654 0.309011
v -0.425323 2.850654 0.309011
v -0.425323 2.850654 0.309011
v -0.425323 2.850654 0.309011
v -0.425323 2.850654 -0.309011
v -0.425323 2.850654 -0.309011
v -0.425323 2.850654 -0.309011
v -0.425323 2.850654 -0.309011
v -0.425323 2.850654 -0.309011
v 0.162456 2.850654 -0.499995
v 0.162456 2.850654 -0.499995
v 0.162456 2.850654 -0.499995
v 0.162456 2.850654 -0.499995
v 0.162456 2.850654 -0.499995
vt 0.913977 0.086023
vt 0.543054 0.456946
vt 0.543054 0.086023
vt 0.913977 0.086023
vt 0.543054 0.456946
vt 0.543054 0.086023
vt 0.913977 0.086023
vt 0.543054 0.456946
vt 0.543054 0.086023
vt 0.913977 0.086023
vt 0.543054 0.456946
vt 0.543054 0.086023
vt 0.913977 0.086023
vt 0.543054 0.456946
vt 0.543054 0.086023
vt 0.913977 0.086023
vt 0.543054 0.456946
vt 0.543054 0.086023
vt 0.913977 0.086023
vt 0.543054 0.456946
vt 0.543054 0.086023
vt 0.543054 0.086023
vt 0.913977 0.456946
vt 0.543054 0.456946
vt 0.904900 0.214174
vt 0.552131 0.328795
vt 0.619504 0.421526
vt 0.913977 0.086023
vt 0.543054 0.456946
vt 0.543054 0.086023
vt 0.913977 0.086023
vt 0.543054 0.456946
vt 0.543054 0.086023
vt 0.728516 0.086023
vt 0.552131 0.214174
vt 0.619504 0.421526
vt 0.913977 0.456946
vt 0.913977 0.456946
vt 0.913977 0.456946
vt 0.913977 0.456946
vt 0.913977 0.456946
vt 0.913977 0.456946
vt 0.913977 0.456946
vt 0.913977 0.086023
vt 0.728516 0.456946
vt 0.837527 0.421526
vt 0.904900 0.328795
vt 0.837527 0.121443
vt 0.728516 0.086023
vt 0.619504 0.121443
vt 0.552131 0.214174
vt 0.913977 0.456946
vt 0.913977 0.456946
vt 0.728516 0.456946
vt 0.837527 0.421526
vt 0.904900 0.328795
vt 0.904900 0.214174
vt 0.837527 0.121443
vt 0.619504 0.121443
vt 0.552131 0.328795
vt 0.005859 0.494141
vt 0.505859 0.494141
vt 0.505859 0.994141
vt 0.005859 0.494141
vt 0.505859 0.494141
vt 0.505859 0.994141
vt 0.005859 0.494141
vt 0.505859 0.494141
vt 0.505859 0.994141
vt 0.005859 0.494141
vt 0.505859 0.494141
vt 0.505859 0.994141
vt 0.005859 0.494141
vt 0.505859 0.494141
vt 0.505859 0.994141
vt 0.005859 0.494141
vt 0.505859 0.494141
vt 0.505859 0.994141
vt 0.005859 0.494141
vt 0.505859 0.494141
vt 0.505859 0.994141
vt 0.005859 0.494141
vt 0.505859 0.494141
vt 0.505859 0.994141
vt 0.005859 0.494141
vt 0.505859 0.494141
vt 0.505859 0.994141
vt 0.005859 0.494141
vt 0.505859 0.494141
vt 0.505859 0.994141
vt 0.005859 0.494141
vt 0.505859 0.494141
vt 0.505859 0.994141
vt 0.005859 0.494141
vt 0.505859 0.494141
vt 0.505859 0.994141
vt 0.005859 0.494141
vt 0.505859 0.494141
vt 0.505859 0.994141
vt 0.005859 0.494141
vt 0.505859 0.494141
vt 0.505859 0.994141
vt 0.005859 0.494141
vt 0.505859 0.494141
vt 0.505859 0.994141
vt 0.005859 0.494141
vt 0.505859 0.494141
vt 0.505859 0.994141
vt 0.005859 0.494141
vt 0.505859 0.494141
vt 0.505859 0.994141
vt 0.005859 0.494141
vt 0.505859 0.494141
vt 0.505859 0.994141
vt 0.005859 0.494141
vt 0.505859 0.494141
vt 0.505859 0.994141
vt 0.005859 0.494141
vt 0.505859 0.494141
vt 0.505859 0.994141
vt 0.005859 0.494141
vt 0.505859 0.494141
vt 0.505859 0.994141
vt 0.005859 0.494141
vt 0.505859 0.494141
vt 0.505859 0.994141
vt 0.005859 0.494141
vt 0.505859 0.494141
vt 0.505859 0.994141
vt 0.005859 0.494141
vt 0.505859 0.494141
vt 0.505859 0.994141
vt 0.005859 0.494141
vt 0.505859 0.494141
vt 0.505859 0.994141
vt 0.005859 0.494141
vt 0.505859 0.494141
vt 0.505859 0.994141
vt 0.005859 0.494141
vt 0.505859 0.494141
vt 0.505859 0.994141
vt 0.005859 0.494141
vt 0.505859 0.494141
vt 0.505859 0.994141
vt 0.005859 0.494141
vt 0.505859 0.494141
vt 0.505859 0.994141
vt 0.005859 0.494141
vt 0.505859 0.494141
vt 0.505859 0.994141
vt 0.005859 0.494141
vt 0.505859 0.494141
vt 0.505859 0.994141
vt 0.005859 0.494141
vt 0.505859 0.494141
vt 0.505859 0.994141
vt 0.005859 0.494141
vt 0.505859 0.494141
vt 0.505859 0.994141
vt 0.005859 0.494141
vt 0.505859 0.494141
vt 0.505859 0.994141
vt 0.005859 0.494141
vt 0.505859 0.494141
vt 0.505859 0.994141
vt 0.005859 0.494141
vt 0.505859 0.494141
vt 0.505859 0.994141
vt 0.005859 0.494141
vt 0.505859 0.494141
vt 0.505859 0.994141
vt 0.005859 0.494141
vt 0.505859 0.494141
vt 0.505859 0.994141
vt 0.005859 0.494141
vt 0.505859 0.494141
vt 0.505859 0.994141
vt 0.005859 0.494141
vt 0.505859 0.494141
vt 0.505859 0.994141
vt 0.005859 0.494141
vt 0.505859 0.494141
vt 0.505859 0.994141
vt 0.005859 0.494141
vt 0.505859 0.494141
vt 0.505859 0.994141
vt 0.005859 0.494141
vt 0.505859 0.494141
vt 0.505859 0.994141
vt 0.005859 0.494141
vt 0.505859 0.494141
vt 0.505859 0.994141
vt 0.005859 0.494141
vt 0.505859 0.494141
vt 0.505859 0.994141
vt 0.005859 0.494141
vt 0.505859 0.494141
vt 0.505859 0.994141
vt 0.005859 0.494141
vt 0.505859 0.494141
vt 0.505859 0.994141
vt 0.005859 0.494141
vt 0.505859 0.494141
vt 0.505859 0.994141
vt 0.005859 0.494141
vt 0.505859 0.494141
vt 0.505859 0.994141
vt 0.005859 0.494141
vt 0.505859 0.494141
vt 0.505859 0.994141
vt 0.005859 0.494141
vt 0.505859 0.494141
vt 0.505859 0.994141
vt 0.005859 0.494141
vt 0.505859 0.494141
vt 0.505859 0.994141
vt 0.005859 0.494141
vt 0.505859 0.494141
vt 0.505859 0.994141
vt 0.005859 0.494141
vt 0.505859 0.494141
vt 0.505859 0.994141
vt 0.005859 0.494141
vt 0.505859 0.494141
vt 0.505859 0.994141
vt 0.005859 0.494141
vt 0.505859 0.494141
vt 0.505859 0.994141
vt 0.005859 0.494141
vt 0.505859 0.494141
vt 0.505859 0.994141
vt 0.005859 0.494141
vt 0.505859 0.494141
vt 0.505859 0.994141
vt 0.005859 0.494141
vt 0.505859 0.494141
vt 0.505859 0.994141
vt 0.005859 0.494141
vt 0.505859 0.494141
vt 0.505859 0.994141
vt 0.005859 0.494141
vt 0.505859 0.494141
vt 0.505859 0.994141
vt 0.005859 0.494141
vt 0.505859 0.494141
vt 0.505859 0.994141
vt 0.005859 0.494141
vt 0.505859 0.494141
vt 0.505859 0.994141
vt 0.005859 0.494141
vt 0.505859 0.494141
vt 0.505859 0.994141
vt 0.005859 0.494141
vt 0.505859 0.494141
vt 0.505859 0.994141
vt 0.005859 0.494141
vt 0.505859 0.494141
vt 0.505859 0.994141
vt 0.005859 0.494141
vt 0.505859 0.494141
vt 0.505859 0.994141
vt 0.005859 0.494141
vt 0.505859 0.494141
vt 0.505859 0.994141
vt 0.005859 0.494141
vt 0.505859 0.494141
vt 0.505859 0.994141
vt 0.005859 0.494141
vt 0.505859 0.494141
vt 0.505859 0.994141
vt 0.005859 0.494141
vt 0.505859 0.494141
vt 0.505859 0.994141
vt 0.005859 0.494141
vt 0.505859 0.494141
vt 0.505859 0.994141
vt 0.005859 0.494141
vt 0.505859 0.494141
vt 0.505859 0.994141
vt 0.005859 0.494141
vt 0.505859 0.494141
vt 0.505859 0.994141
vt 0.005859 0.494141
vt 0.505859 0.494141
vt 0.505859 0.994141
vt 0.005859 0.494141
vt 0.505859 0.494141
vt 0.505859 0.994141
vt 0.005859 0.494141
vt 0.505859 0.494141
vt 0.505859 0.994141
vt 0.005859 0.494141
vt 0.505859 0.494141
vt 0.505859 0.994141
vt 0.005859 0.494141
vt 0.505859 0.494141
vt 0.505859 0.994141
vt 0.005859 0.494141
vt 0.505859 0.494141
vt 0.505859 0.994141
vn 0.3087 0.0475 -0.9500
vn 0.8081 0.0475 -0.5871
vn 0.9989 0.0475 0.0000
vn 0.8081 0.0475 0.5871
vn 0.3087 0.0475 0.9500
vn -0.3087 0.0475 0.9500
vn -0.8081 0.0475 0.5871
vn -0.9989 0.0475 0.0000
vn 0.0000 1.0000 -0.0000
vn -0.8081 0.0475 -0.5871
vn -0.3087 0.0475 -0.9500
vn 0.0000 -1.0000 0.0000
vn 0.1024 -0.9435 0.3151
vn 0.7002 -0.6617 0.2680
vn -0.2680 -0.9435 0.1947
vn -0.2680 -0.9435 -0.1947
vn 0.1024 -0.9435 -0.3151
vn 0.9050 -0.3304 0.2680
vn 0.0247 -0.3304 0.9435
vn -0.8897 -0.3304 0.3151
vn -0.5746 -0.3304 -0.7488
vn 0.5346 -0.3304 -0.7779
vn 0.8026 -0.1256 0.5831
vn -0.3066 -0.1256 0.9435
vn -0.9921 -0.1256 0.0000
vn -0.3066 -0.1256 -0.9435
vn 0.8026 -0.1256 -0.5831
vn 0.4089 0.6617 0.6284
vn -0.4713 0.6617 0.5831
vn -0.7002 0.6617 -0.2680
vn 0.0385 0.6617 -0.7488
vn 0.7240 0.6617 -0.1947
vn 0.2680 0.9435 -0.1947
vn 0.4911 0.7947 -0.3568
vn 0.4089 0.6617 -0.6284
vn -0.1024 0.9435 -0.3151
vn -0.1876 0.7947 -0.5773
vn -0.4713 0.6617 -0.5831
vn -0.3313 0.9435 0.0000
vn -0.6071 0.7947 0.0000
vn -0.7002 0.6617 0.2680
vn -0.1024 0.9435 0.3151
vn -0.1876 0.7947 0.5773
vn 0.0385 0.6617 0.7488
vn 0.2680 0.9435 0.1947
vn 0.4911 0.7947 0.3568
vn 0.7240 0.6617 0.1947
vn 0.8897 0.3304 -0.3151
vn 0.7947 0.1876 -0.5773
vn 0.5746 0.3304 -0.7488
vn -0.0247 0.3304 -0.9435
vn -0.3035 0.1876 -0.9342
vn -0.5346 0.3304 -0.7779
vn -0.9050 0.3304 -0.2680
vn -0.9822 0.1876 0.0000
vn -0.9050 0.3304 0.2680
vn -0.5346 0.3304 0.7779
vn -0.3035 0.1876 0.9342
vn -0.0247 0.3304 0.9435
vn 0.5746 0.3304 0.7488
vn 0.7947 0.1876 0.5773
vn 0.8897 0.3304 0.3151
vn 0.3066 0.1256 -0.9435
vn 0.3035 -0.1876 -0.9342
vn 0.0247 -0.3304 -0.9435
vn -0.8026 0.1256 -0.5831
vn -0.7947 -0.1876 -0.5773
vn -0.8897 -0.3304 -0.3151
vn -0.8026 0.1256 0.5831
vn -0.7947 -0.1876 0.5773
vn -0.5746 -0.3304 0.7488
vn 0.3066 0.1256 0.9435
vn 0.3035 -0.1876 0.9342
vn 0.5346 -0.3304 0.7779
vn 0.9921 0.1256 0.0000
vn 0.9822 -0.1876 0.0000
vn 0.9050 -0.3304 -0.2680
vn 0.4713 -0.6617 -0.5831
vn 0.1876 -0.7947 -0.5773
vn -0.0385 -0.6617 -0.7488
vn -0.4089 -0.6617 -0.6284
vn -0.4911 -0.7947 -0.3568
vn -0.7240 -0.6617 -0.1947
vn -0.7240 -0.6617 0.1947
vn -0.4911 -0.7947 0.3568
vn -0.4089 -0.6617 0.6284
vn 0.7002 -0.6617 -0.2680
vn 0.6071 -0.7947 0.0000
vn 0.3313 -0.9435 0.0000
vn -0.0385 -0.6617 0.7488
vn 0.1876 -0.7947 0.5773
vn 0.4713 -0.6617 0.5831
s off
f 69/1/1 65/2/1 63/3/1
f 68/4/2 71/5/2 66/6/2
f 74/7/3 75/8/3 72/9/3
f 78/10/4 79/11/4 76/12/4
f 82/13/5 83/14/5 80/15/5
f 86/16/6 87/17/6 84/18/6
f 90/19/7 91/20/7 88/21/7
f 92/22/8 97/23/8 95/24/8
f 98/25/9 8/26/9 6/27/9
f 18/28/10 99/29/10 96/30/10
f 20/31/11 64/32/11 100/33/11
f 11/34/12 15/35/12 19/36/12
f 69/1/1 67/37/1 65/2/1
f 68/4/2 73/38/2 71/5/2
f 74/7/3 77/39/3 75/8/3
f 78/10/4 81/40/4 79/11/4
f 82/13/5 85/41/5 83/14/5
f 86/16/6 89/42/6 87/17/6
f 90/19/7 93/43/7 91/20/7
f 92/22/8 94/44/8 97/23/8
f 6/27/9 4/45/9 70/46/9
f 70/46/9 101/47/9 98/25/9
f 98/25/9 16/48/9 14/49/9
f 14/49/9 12/50/9 98/25/9
f 10/51/9 8/26/9 98/25/9
f 6/27/9 70/46/9 98/25/9
f 98/25/9 12/50/9 10/51/9
f 18/28/10 102/52/10 99/29/10
f 20/31/11 2/53/11 64/32/11
f 19/36/12 1/54/12 3/55/12
f 3/55/12 5/56/12 7/57/12
f 7/57/12 9/58/12 11/34/12
f 11/34/12 13/59/12 15/35/12
f 15/35/12 17/60/12 19/36/12
f 19/36/12 3/55/12 7/57/12
f 7/57/12 11/34/12 19/36/12
f 108/61/13 113/62/13 103/63/13
f 117/64/14 112/65/14 130/66/14
f 109/67/15 105/68/15 144/69/15
f 110/70/16 146/71/16 158/72/16
f 111/73/17 160/74/17 136/75/17
f 118/76/18 132/77/18 177/78/18
f 126/79/19 121/80/19 191/81/19
f 154/82/20 149/83/20 205/84/20
f 168/85/21 163/86/21 219/87/21
f 141/88/22 172/89/22 233/90/22
f 120/91/23 179/92/23 197/93/23
f 129/94/24 193/95/24 211/96/24
f 157/97/25 207/98/25 225/99/25
f 171/100/26 221/101/26 239/102/26
f 143/103/27 235/104/27 183/105/27
f 202/106/28 247/107/28 272/108/28
f 216/109/29 252/110/29 286/111/29
f 230/112/30 257/113/30 291/114/30
f 244/115/31 262/116/31 296/117/31
f 188/118/32 267/119/32 278/120/32
f 277/121/33 297/122/33 282/123/33
f 59/124/34 269/125/34 298/126/34
f 268/127/35 246/128/35 300/129/35
f 299/130/36 292/131/36 285/132/36
f 62/133/37 264/134/37 293/135/37
f 263/136/38 232/137/38 295/138/38
f 294/139/39 287/140/39 284/141/39
f 61/142/40 259/143/40 288/144/40
f 258/145/41 218/146/41 290/147/41
f 289/148/42 273/149/42 283/150/42
f 60/151/43 254/152/43 274/153/43
f 253/154/44 204/155/44 276/156/44
f 275/157/45 279/158/45 32/159/45
f 58/160/46 249/161/46 280/162/46
f 248/163/47 190/164/47 281/165/47
f 182/166/48 270/167/48 187/168/48
f 44/169/49 236/170/49 271/171/49
f 234/172/50 245/173/50 57/174/50
f 238/175/51 265/176/51 243/177/51
f 52/178/52 222/179/52 266/180/52
f 220/181/53 231/182/53 56/183/53
f 224/184/54 260/185/54 229/186/54
f 50/187/55 208/188/55 261/189/55
f 206/190/56 217/191/56 55/192/56
f 210/193/57 255/194/57 215/195/57
f 48/196/58 194/197/58 256/198/58
f 192/199/59 203/200/59 54/201/59
f 196/202/60 250/203/60 201/204/60
f 46/205/61 180/206/61 251/207/61
f 178/208/62 189/209/62 53/210/62
f 237/211/63 240/212/63 30/213/63
f 51/214/64 174/215/64 241/216/64
f 173/217/65 170/218/65 242/219/65
f 223/220/66 226/221/66 29/222/66
f 49/223/67 165/224/67 227/225/67
f 164/226/68 156/227/68 228/228/68
f 209/229/69 212/230/69 28/231/69
f 47/232/70 151/233/70 213/234/70
f 150/235/71 128/236/71 214/237/71
f 195/238/72 198/239/72 27/240/72
f 45/241/73 123/242/73 199/243/73
f 122/244/74 119/245/74 200/246/74
f 181/247/75 184/248/75 31/249/75
f 43/250/76 133/251/76 185/252/76
f 131/253/77 142/254/77 186/255/77
f 135/256/78 175/257/78 140/258/78
f 37/259/79 161/260/79 176/261/79
f 159/262/80 169/263/80 42/264/80
f 162/265/81 166/266/81 25/267/81
f 40/268/82 147/269/82 167/270/82
f 145/271/83 155/272/83 41/273/83
f 148/274/84 152/275/84 24/276/84
f 38/277/85 106/278/85 153/279/85
f 104/280/86 127/281/86 39/282/86
f 134/283/87 137/284/87 26/285/87
f 36/286/88 114/287/88 138/288/88
f 116/289/89 21/290/89 139/291/89
f 107/292/90 124/293/90 23/294/90
f 33/295/91 115/296/91 125/297/91
f 34/298/92 22/299/92 35/300/92
